<?xml version="1.0" encoding="UTF-8" standalone="no"?>
<svg
   xmlns:dc="http://purl.org/dc/elements/1.1/"
   xmlns:cc="http://creativecommons.org/ns#"
   xmlns:rdf="http://www.w3.org/1999/02/22-rdf-syntax-ns#"
   xmlns:svg="http://www.w3.org/2000/svg"
   xmlns="http://www.w3.org/2000/svg"
   id="svg66"
   height="195.5128"
   width="745.74939"
   version="1.1">
  <metadata
     id="metadata72">
    <rdf:RDF>
      <cc:Work
         rdf:about="">
        <dc:format>image/svg+xml</dc:format>
        <dc:type
           rdf:resource="http://purl.org/dc/dcmitype/StillImage" />
        <dc:title></dc:title>
      </cc:Work>
    </rdf:RDF>
  </metadata>
  <defs
     id="defs70" />
  <path
     id="path2"
     style="fill:none"
     d="M -48.070389,-199.8814 H 793.81941 V 395.3942 H -48.070389 Z" />
  <g
     transform="translate(-48.070389,-199.8814)"
     id="Layer1000">
    <path
       id="path4"
       style="fill:#005f8e;fill-rule:evenodd"
       d="m 57.0029,260.6332 c 3.8068,-10.5732 13.5902,-25.1121 24.1432,-33.271 -14.4218,12.9411 -23.882,29.519 -28.1982,47.1731 0.8414,-5.1418 3.2847,-11.7482 4.055,-13.9021 z m 134.847,-48.6192 c -59.5957,-35.8388 -143.7512,12.8378 -143.7795,79.9713 -0.0071,16.8903 3.3473,29.3626 9.1067,38.0481 17.5012,26.3923 57.2108,17.82 92.2976,-7.999 -2.0987,-2.7011 -1.7046,-2.1765 -3.5583,-4.6708 -27.5233,27.0191 -67.4146,40.339 -82.2536,-8.0271 -0.7794,-3.4637 -1.3289,-6.6294 -1.6766,-9.9732 -0.2493,-2.3871 0.2286,-6.7044 -0.4275,-8.836 -0.2152,-0.712 -0.255,-0.7591 -0.8276,-0.2632 -0.9092,0.7932 0.1398,10.823 0.4301,12.554 0.8369,5.0462 2.1175,9.864 3.9244,14.7554 l 0.6391,1.7357 c -7.6231,-11.7989 -10.1948,-28.4487 -5.6619,-44.7762 -3.9458,10.8095 -3.3751,15.9438 -6.1372,27.2975 -1.6123,-11.5062 1.7775,-22.4876 4.7941,-30.7018 2.8884,-10.6745 7.1686,-19.4278 13.9775,-28.2912 25.4579,-34.6743 82.5065,-59.3521 117.2853,-26.0524 5.4455,4.996 6.223,-2.5705 1.8674,-4.7711 z M 52.8207,271.2719 c -0.9069,3.2695 -1.615,6.5562 -2.1319,9.8599 -0.213,1.6874 -0.4137,3.3299 -0.596,4.9326 -0.2443,0.2268 -0.4833,0.5114 -0.7093,0.8515 0.2126,-1.6289 0.4715,-3.3692 0.7871,-5.2625 0.5802,-4.389 1.5326,-8.632 2.8968,-12.374 -0.4496,1.6214 -0.8487,3.2519 -1.196,4.8837 0.2918,-0.9908 0.6074,-1.9567 0.9493,-2.8912 z m 34.6685,-48.3136 c -14.0973,10.3844 -24.106,24.4144 -29.6212,39.8174 1.2366,-4.5188 4.0365,-10.2174 4.9289,-12.0772 4.3947,-9.1268 14.5006,-21.31 24.6923,-27.7402 z" />
    <path
       id="path6"
       style="fill:#005f8e;fill-rule:evenodd"
       d="m 62.7969,250.6985 c -0.8923,1.8597 -3.6923,7.5584 -4.9289,12.0771 5.5152,-15.4029 15.5239,-29.4329 29.6213,-39.8173 -10.1918,6.4302 -20.2978,18.6135 -24.6924,27.7402 z" />
    <path
       id="path8"
       style="fill:#005f8e;fill-rule:evenodd"
       d="m 61.3263,264.159 c -0.7116,1.9891 -1.6407,4.3414 -2.6066,6.9697 -0.4059,1.5009 -0.7671,3.0179 -0.9992,4.4204 0.9456,-3.8585 2.147,-7.6665 3.6058,-11.3901 z" />
    <path
       id="path10"
       style="fill:#005f8e;fill-rule:evenodd"
       d="m 50.1706,281.6533 c -0.3156,1.8935 -0.5745,3.6337 -0.7871,5.2625 0.226,-0.3401 0.465,-0.6246 0.7093,-0.8513 0.1823,-1.6028 0.383,-3.2454 0.5959,-4.9328 0.517,-3.3035 1.2252,-6.5902 2.1321,-9.8597 -0.342,0.9344 -0.6576,1.9003 -0.9494,2.8911 0.3473,-1.6319 0.7464,-3.2622 1.196,-4.8837 -1.3642,3.742 -2.3166,7.985 -2.8968,12.3739 z" />
    <path
       id="path12"
       style="fill:#005f8e;fill-rule:evenodd"
       d="m 57.0029,260.6333 c -0.7702,2.1538 -3.2136,8.7602 -4.055,13.902 4.3161,-17.654 13.7764,-34.232 28.1981,-47.1731 -10.5529,8.1589 -20.3364,22.6979 -24.1431,33.2711 z" />
    <path
       id="path14"
       style="fill:#005f8e;fill-rule:evenodd"
       d="m 64.5463,260.2105 c -0.6939,1.9332 -2.8826,7.8556 -3.6363,12.4647 3.8669,-15.8292 12.3498,-30.694 25.2825,-42.2959 -9.4633,7.3152 -18.2362,20.3506 -21.6462,29.8312 z" />
    <path
       id="path16"
       style="fill:#005f8e;fill-rule:evenodd"
       d="m 66.4509,264.2363 c -0.6936,1.931 -2.8819,7.856 -3.6364,12.4674 3.8696,-15.8311 12.3495,-30.6932 25.2833,-42.3001 -9.4614,7.3168 -18.2369,20.3525 -21.6469,29.8327 z" />
    <path
       id="path18"
       style="fill:#005f8e;fill-rule:evenodd"
       d="m 110.33,217.8693 c -2.9532,1.3045 -5.6949,2.8471 -8.4002,4.721 -1.0689,0.7395 -6.4712,4.3613 -7.3042,6.2571 -0.0639,0.147 -0.108,0.2646 -0.1336,0.3531 3.0768,-3.3649 6.8273,-6.004 12.2468,-8.7759 1.9961,-1.0222 3.8439,-1.8563 5.8339,-2.5947 1.4204,-0.5289 4.1319,-0.9157 5.3329,-1.6495 0.4014,-0.2474 0.4221,-0.2769 0.0287,-0.5484 -0.6269,-0.4312 -6.5906,1.787 -7.6043,2.2373 z" />
    <path
       id="path20"
       style="fill:#005f8e;fill-rule:evenodd"
       d="m 154.9803,319.5825 c 4.6808,-3.6079 14.4232,-9.2339 20.2756,-14.9117 l -4.4838,-5 c -75.9365,60.7487 -79.4032,-6.8366 -53.2638,-27.6491 7.7879,-6.2003 18.2089,-8.2523 30.1237,-1.5163 10.2116,5.7739 20.6071,17.6134 29.5461,29.168 9.6007,12.4143 21.3888,27.2083 35.6766,36.1646 8.4294,5.2838 17.0884,10.8587 32.9627,13.2917 43.6923,5 70.9939,-59.0233 18.3806,-76.1805 32.1554,23.4618 22.0377,55.2917 -6.5109,59.2222 v 3.1173 h -6.4496 v -2.717 c -2.9974,-0.0255 -6.1489,-0.3317 -9.4374,-0.9593 -17.4144,-3.3233 -39.7193,-20.0296 -60.7178,-42.8955 -9.9947,-10.8814 -21.6068,-22.2554 -32.9032,-27.6055 v 3.0866 h -6.4497 v -5.6267 c -11.3669,-3.5836 -21.6541,-2.0832 -30.2289,2.5067 -20.0259,10.7163 -30.7276,38.2663 -24.1121,57.1855 6.3859,18.26 27.6659,32.0987 67.5919,1.319 z m 70.8613,9.5088 h 4.5695 v 4.5695 h -4.5695 z m 14.118,3.2618 h 4.5691 v 4.5695 h -4.5691 z m -85.3918,-64.0318 h 3.7251 v 3.725 h -3.7251 z" />
    <path
       id="path22"
       style="fill:#005f8e;fill-rule:evenodd"
       d="m 317.7764,334.6427 c -3.8068,10.5732 -13.5902,25.1122 -24.1432,33.2711 14.4218,-12.9412 23.882,-29.5191 28.1982,-47.1731 -0.8414,5.1417 -3.2847,11.7481 -4.055,13.902 z m -134.847,48.6192 c 59.5957,35.8388 143.7512,-12.8378 143.7795,-79.9712 0.007,-16.8904 -3.3473,-29.3627 -9.1067,-38.0482 -17.5012,-26.3923 -57.2108,-17.82 -92.2976,7.999 2.0987,2.7012 1.7046,2.1765 3.5583,4.6708 27.5233,-27.019 67.4146,-40.339 82.2536,8.0272 0.7794,3.4636 1.3289,6.6293 1.6766,9.9731 0.2493,2.3871 -0.2286,6.7044 0.4275,8.8361 0.2152,0.7119 0.255,0.7591 0.8276,0.2631 0.9092,-0.7932 -0.1398,-10.8229 -0.4301,-12.554 -0.8369,-5.0462 -2.1175,-9.864 -3.9244,-14.7554 l -0.6391,-1.7356 c 7.623,11.7988 10.1947,28.4486 5.6619,44.7761 3.9458,-10.8095 3.3751,-15.9437 6.1372,-27.2974 1.6123,11.5062 -1.7775,22.4876 -4.7941,30.7017 -2.8884,10.6745 -7.1686,19.4278 -13.9775,28.2913 -25.4579,34.6742 -82.5065,59.3521 -117.2853,26.0523 -5.4455,-4.996 -6.223,2.5705 -1.8674,4.7711 z M 321.9586,324.004 c 0.9069,-3.2695 1.615,-6.5562 2.1319,-9.8598 0.213,-1.6874 0.4137,-3.33 0.596,-4.9327 0.2443,-0.2268 0.4833,-0.5113 0.7093,-0.8514 -0.2126,1.6289 -0.4715,3.3691 -0.7871,5.2625 -0.5802,4.389 -1.5326,8.6319 -2.8968,12.374 0.4496,-1.6215 0.8487,-3.2519 1.196,-4.8838 -0.2918,0.9909 -0.6074,1.9567 -0.9493,2.8912 z m -34.6685,48.3136 c 14.0973,-10.3844 24.106,-24.4144 29.6212,-39.8173 -1.2366,4.5187 -4.0365,10.2174 -4.9289,12.0771 -4.3947,9.1268 -14.5006,21.3101 -24.6923,27.7402 z" />
    <path
       id="path24"
       style="fill:#005f8e;fill-rule:evenodd"
       d="m 311.9824,344.5775 c 0.8923,-1.8598 3.6923,-7.5585 4.9289,-12.0772 -5.5152,15.4029 -15.5239,29.4329 -29.6213,39.8173 10.1918,-6.4302 20.2978,-18.6134 24.6924,-27.7401 z" />
    <path
       id="path26"
       style="fill:#005f8e;fill-rule:evenodd"
       d="m 313.453,331.117 c 0.7116,-1.9892 1.6407,-4.3414 2.6066,-6.9698 0.4059,-1.5009 0.7671,-3.0179 0.9992,-4.4203 -0.9456,3.8585 -2.147,7.6664 -3.6058,11.3901 z" />
    <path
       id="path28"
       style="fill:#005f8e;fill-rule:evenodd"
       d="m 324.6087,313.6226 c 0.3156,-1.8934 0.5745,-3.6337 0.7871,-5.2625 -0.226,0.3401 -0.465,0.6247 -0.7093,0.8514 -0.1823,1.6027 -0.383,3.2453 -0.5959,4.9327 -0.517,3.3036 -1.2252,6.5903 -2.1321,9.8598 0.342,-0.9345 0.6576,-1.9004 0.9494,-2.8911 -0.3473,1.6318 -0.7464,3.2622 -1.196,4.8837 1.3642,-3.7421 2.3166,-7.9851 2.8968,-12.374 z" />
    <path
       id="path30"
       style="fill:#005f8e;fill-rule:evenodd"
       d="m 317.7764,334.6427 c 0.7702,-2.1539 3.2136,-8.7602 4.055,-13.9021 -4.3161,17.6541 -13.7764,34.232 -28.1981,47.1732 10.5529,-8.159 20.3364,-22.6979 24.1431,-33.2711 z" />
    <path
       id="path32"
       style="fill:#005f8e;fill-rule:evenodd"
       d="m 310.233,335.0655 c 0.6939,-1.9333 2.8826,-7.8556 3.6363,-12.4648 -3.8669,15.8292 -12.3498,30.6941 -25.2825,42.296 9.4633,-7.3153 18.2362,-20.3506 21.6462,-29.8312 z" />
    <path
       id="path34"
       style="fill:#005f8e;fill-rule:evenodd"
       d="m 308.3284,331.0396 c 0.6936,-1.9309 2.8819,-7.856 3.6364,-12.4674 -3.8696,15.8311 -12.3495,30.6933 -25.2833,42.3002 9.4614,-7.3168 18.2369,-20.3526 21.6469,-29.8328 z" />
    <path
       id="path36"
       style="fill:#005f8e;fill-rule:evenodd"
       d="m 264.4493,377.4066 c 2.9532,-1.3044 5.6949,-2.847 8.4002,-4.7209 1.0689,-0.7396 6.4712,-4.3614 7.3042,-6.2571 0.0639,-0.1471 0.1079,-0.2647 0.1336,-0.3531 -3.0768,3.3648 -6.8273,6.0039 -12.2468,8.7759 -1.9961,1.0221 -3.8439,1.8563 -5.8339,2.5946 -1.4204,0.5289 -4.1319,0.9157 -5.3329,1.6495 -0.4014,0.2474 -0.4221,0.2769 -0.0287,0.5485 0.6269,0.4312 6.5906,-1.787 7.6043,-2.2374 z" />
    <path
       id="path38"
       style="fill:#005f8e;fill-rule:evenodd"
       d="m 153.9791,256.8614 h 6.4497 v 6.4497 h -6.4497 z" />
    <path
       id="path40"
       style="fill:#005f8e;fill-rule:evenodd"
       d="m 237.7888,320.8402 h 6.4497 v 6.4497 h -6.4497 z" />
    <path
       id="path42"
       style="fill:#005f8e;fill-rule:evenodd"
       d="m 249.6898,322.2811 h 3.7253 v 3.725 h -3.7253 z" />
    <path
       id="path44"
       style="fill:#005f8e;fill-rule:evenodd"
       d="m 164.5197,264.7006 h 3.7253 v 3.725 h -3.7253 z" />
    <path
       id="path46"
       style="fill:#005f8e;fill-rule:evenodd"
       d="m 218.0616,386.7199 h 6.4497 v 6.4497 h -6.4497 z" />
    <path
       id="path48"
       style="fill:#005f8e;fill-rule:evenodd"
       d="m 146.7564,252.2271 h 3.725 v 3.725 h -3.725 z" />
    <path
       id="path50"
       style="fill:#005f8e;fill-rule:evenodd"
       d="m 229.7001,389.1112 h 3.725 v 3.7251 h -3.725 z" />
    <path
       id="path52"
       style="fill:#005f8e;fill-rule:evenodd"
       d="m 212.2807,382.3974 h 3.725 v 3.725 h -3.725 z" />
    <path
       id="path54"
       style="fill:#005f8e;fill-rule:evenodd"
       d="m 254.5294,266.6254 h 3.725 v 3.725 h -3.725 z" />
    <path
       id="path56"
       style="fill:#005f8e;fill-rule:evenodd"
       d="m 228.2808,318.4209 h 3.725 v 3.725 h -3.725 z" />
  </g>
  <g
     transform="translate(-48.070389,-199.8814)"
     id="Layer1001">
    <path
       id="path59"
       style="fill:#8b1312;fill-rule:evenodd"
       d="m 408.9226,284.3881 c -3.3579,2.6583 -7.4155,5.5964 -8.9544,5.5964 -1.1194,0 -1.5389,-0.6996 -1.5389,-3.2179 v -39.1753 c 0,-13.1516 -11.7527,-16.3695 -19.5877,-16.3695 -6.8556,0 -12.5921,1.9587 -20.2873,6.7155 v 6.8559 c 7.4155,-5.5964 12.4523,-7.975 19.1679,-7.975 9.3742,0 13.9912,4.477 13.9912,12.8718 v 7.975 c -18.3285,0.8394 -36.6567,6.5759 -36.6567,22.9454 0,8.8146 7.4151,15.9499 16.9293,15.9499 6.7156,0 12.7318,-2.3785 19.7274,-7.8349 0.5596,6.296 1.3992,7.8349 4.4771,7.8349 2.6583,0 5.3166,-0.9793 11.6127,-5.7361 l 1.1194,-0.8397 z m -17.2092,-1.5389 c -6.5758,5.8762 -11.4726,8.1147 -17.4889,8.1147 -7.1356,0 -12.4523,-4.477 -12.4523,-10.3535 0,-10.9131 13.5715,-18.0485 29.9412,-17.3489 z m 76.3918,-50.3683 H 442.921 c -20.1472,0 -26.723,11.8925 -26.723,22.3858 0,7.5552 4.1972,17.2091 16.7893,20.8468 v 0.2798 c -7.4154,2.262 -12.5921,4.6638 -12.5921,10.307 0,4.3606 3.4977,7.462 10.2136,9.0009 v 0.2798 c -11.7525,1.7954 -18.3286,7.2289 -18.3286,15.1804 0,8.9078 8.2548,16.7195 27.5627,16.7195 17.6289,0 28.1222,-6.8323 28.1222,-18.2585 0,-26.6065 -41.1341,-9.7472 -41.1341,-23.4819 0,-12.2655 35.6777,-2.9846 35.6777,-31.1536 0,-6.296 -2.6583,-11.0529 -8.6746,-16.6496 h 14.2711 z m -12.0325,22.246 c 0,9.2342 -7.5552,16.7894 -16.7894,16.7894 -9.5139,0 -16.6495,-7.6953 -16.6495,-17.0692 0,-9.0943 7.1356,-16.3697 16.5095,-16.3697 9.3742,0 16.9294,7.4154 16.9294,16.6495 z m 5.4564,54.9851 c 0,7.4154 -8.3945,12.1725 -21.2664,12.1725 -13.8512,0 -21.5464,-4.1975 -21.5464,-11.6127 0,-10.4936 14.9706,-11.6127 22.8056,-11.6127 11.3329,0 20.0072,2.2385 20.0072,11.0529 z m 66.8778,-25.3239 c -3.358,2.6583 -7.4155,5.5964 -8.9544,5.5964 -1.1194,0 -1.5389,-0.6996 -1.5389,-3.2179 v -39.1753 c 0,-13.1516 -11.7527,-16.3695 -19.5877,-16.3695 -6.8556,0 -12.5921,1.9587 -20.2873,6.7155 v 6.8559 c 7.4154,-5.5964 12.4523,-7.975 19.1679,-7.975 9.3742,0 13.9912,4.477 13.9912,12.8718 v 7.975 c -18.3285,0.8394 -36.6568,6.5759 -36.6568,22.9454 0,8.8146 7.4152,15.9499 16.9294,15.9499 6.7156,0 12.7318,-2.3785 19.7274,-7.8349 0.5596,6.296 1.3992,7.8349 4.4771,7.8349 2.6583,0 5.3166,-0.9793 11.6127,-5.7361 l 1.1194,-0.8397 z m -17.2092,-1.5389 c -6.5758,5.8762 -11.4726,8.1147 -17.4889,8.1147 -7.1356,0 -12.4523,-4.477 -12.4523,-10.3535 0,-10.9131 13.5714,-18.0485 29.9412,-17.3489 z m 33.4386,-50.3683 h -6.7155 v 62.8203 h 6.7155 V 251.229 c 5.5968,-9.0941 11.473,-13.4314 20.5671,-13.4314 11.0531,0 17.0694,7.5552 17.0694,21.6861 v 35.8175 h 6.7155 v -38.3358 c 0,-16.9293 -9.9337,-25.7436 -23.3651,-25.7436 -9.0941,0 -14.8306,3.3579 -20.7068,12.1722 h -0.2801 z m 69.6762,0 h -6.7158 v 62.8203 h 6.7158 z m 0,-32.5995 h -6.7158 v 11.4729 h 6.7158 z m 30.7806,11.7527 h -2.0988 l -4.6171,5.8762 v 14.9706 h -16.9293 v 5.4564 h 16.9293 v 45.1916 c 0,9.514 7.5552,13.4314 14.5508,13.4314 2.2386,0 4.8969,-0.5595 7.2754,-1.1191 2.3786,-0.6996 4.4771,-1.3992 5.7365,-2.0987 v -6.4361 c -5.5967,2.5186 -7.6952,3.0781 -11.4729,3.0781 -9.2342,0 -9.3739,-3.9174 -9.3739,-14.6908 v -37.3564 h 17.6286 v -5.4564 h -17.6286 z m 36.6565,-11.7527 h -6.7156 v 95.4198 h 6.7156 V 251.229 c 5.7364,-8.9544 11.3329,-13.4314 20.567,-13.4314 12.0325,0 17.0694,8.1147 17.0694,21.6861 v 35.8175 h 6.7156 v -38.4758 c 0,-16.7893 -9.9338,-25.6036 -23.3652,-25.6036 -9.0941,0 -14.8305,3.3579 -20.7068,12.1722 h -0.28 z m 112.0694,84.5067 c -3.3579,2.6583 -7.4154,5.5964 -8.9544,5.5964 -1.1194,0 -1.5389,-0.6996 -1.5389,-3.2179 v -39.1753 c 0,-13.1516 -11.7527,-16.3695 -19.5877,-16.3695 -6.8556,0 -12.592,1.9587 -20.2873,6.7155 v 6.8559 c 7.4155,-5.5964 12.4524,-7.975 19.1679,-7.975 9.3742,0 13.9913,4.477 13.9913,12.8718 v 7.975 c -18.3286,0.8394 -36.6568,6.5759 -36.6568,22.9454 0,8.8146 7.4151,15.9499 16.9293,15.9499 6.7156,0 12.7318,-2.3785 19.7275,-7.8349 0.5595,6.296 1.3991,7.8349 4.477,7.8349 2.6583,0 5.3167,-0.9793 11.6127,-5.7361 l 1.1194,-0.8397 z m -17.2091,-1.5389 c -6.5759,5.8762 -11.4727,8.1147 -17.489,8.1147 -7.1356,0 -12.4523,-4.477 -12.4523,-10.3535 0,-10.9131 13.5715,-18.0485 29.9413,-17.3489 z" />
    <path
       id="path61"
       style="fill:#565757;fill-rule:evenodd"
       d="m 375.8896,354.2386 c -3.0898,-0.9887 -4.9436,-1.3595 -7.3536,-1.3595 -7.9098,0 -13.4714,6.1177 -13.4714,14.8309 0,8.4041 5.438,14.0275 13.595,14.0275 2.5954,0 4.5728,-0.3708 7.7244,-1.4213 v -3.0898 c -3.0898,1.2359 -4.9437,1.6067 -7.4773,1.6067 -6.5503,0 -10.6905,-4.4493 -10.6905,-11.4321 0,-6.9211 4.2638,-11.6175 10.4434,-11.6175 2.3482,0 4.0167,0.3707 7.23,1.7302 z m 33.1841,13.1006 c 0,-8.2806 -5.9942,-14.4601 -14.0894,-14.4601 -8.0951,0 -14.1511,6.1795 -14.1511,14.4601 0,8.2188 6.056,14.3983 14.1511,14.3983 8.0952,0 14.0894,-6.1795 14.0894,-14.3983 z m -3.1516,0 c 0,6.6121 -4.6964,11.4939 -10.9378,11.4939 -6.3031,0 -10.9995,-4.8818 -10.9995,-11.4939 0,-6.6739 4.6964,-11.5557 10.9995,-11.5557 6.2414,0 10.9378,4.9436 10.9378,11.5557 z m 31.5771,-13.904 h -11.1231 c -8.8986,0 -11.8029,5.2526 -11.8029,9.8873 0,3.3369 1.8538,7.6008 7.4154,9.2075 v 0.1236 c -3.2752,0.9989 -5.5616,2.0599 -5.5616,4.5521 0,1.9262 1.5449,3.2959 4.5111,3.9756 v 0.1236 c -5.1908,0.7931 -8.0952,3.1927 -8.0952,6.7048 0,3.9342 3.6459,7.3845 12.1737,7.3845 7.7862,0 12.4208,-3.0177 12.4208,-8.0642 0,-11.7514 -18.1678,-4.305 -18.1678,-10.3714 0,-5.4173 15.7578,-1.3182 15.7578,-13.7597 0,-2.7808 -1.1741,-4.8818 -3.8313,-7.3536 h 6.3031 z m -5.3144,9.8255 c 0,4.0785 -3.3369,7.4154 -7.4154,7.4154 -4.2021,0 -7.3537,-3.3987 -7.3537,-7.539 0,-4.0167 3.1516,-7.23 7.2919,-7.23 4.1403,0 7.4772,3.2751 7.4772,7.3536 z m 2.41,24.2855 c 0,3.2752 -3.7077,5.3762 -9.3928,5.3762 -6.1178,0 -9.5165,-1.8538 -9.5165,-5.129 0,-4.6346 6.6121,-5.129 10.0726,-5.129 5.0054,0 8.8367,0.9887 8.8367,4.8818 z m 10.3198,-34.111 h -2.9661 v 27.7461 h 2.9661 v -19.4655 c 2.4719,-4.0167 5.0673,-5.9323 9.084,-5.9323 4.8818,0 7.539,3.3369 7.539,9.5782 v 15.8196 h 2.9661 v -16.9319 c 0,-7.4772 -4.3874,-11.3703 -10.3198,-11.3703 -4.0167,0 -6.5503,1.4831 -9.1457,5.3762 h -0.1236 z m 30.7741,0 h -2.9662 v 27.7461 h 2.9662 z m 0,-14.398 h -2.9662 v 5.0672 h 2.9662 z m 13.595,5.1908 h -0.927 l -2.0392,2.5954 v 6.6118 h -7.4772 v 2.4101 h 7.4772 v 19.9598 c 0,4.2021 3.3369,5.9324 6.4267,5.9324 0.9887,0 2.1628,-0.2472 3.2133,-0.4944 1.0506,-0.309 1.9775,-0.6179 2.5336,-0.9269 v -2.8426 c -2.4718,1.1123 -3.3987,1.3595 -5.0672,1.3595 -4.0785,0 -4.1402,-1.7303 -4.1402,-6.4885 v -16.4993 h 7.7862 v -2.4101 h -7.7862 z m 16.6847,9.2072 h -2.9662 v 27.7461 h 2.9662 z m 0,-14.398 h -2.9662 v 5.0672 h 2.9662 z m 30.7122,14.398 h -2.9043 l -10.0109,23.3587 -10.4434,-23.3587 h -3.028 l 12.6063,28.3023 h 1.8538 z m 26.572,12.8535 c 0,-9.2693 -6.3649,-13.4096 -12.2973,-13.4096 -7.3536,0 -12.7298,5.9323 -12.7298,14.0893 0,8.5896 5.8088,14.7691 13.8422,14.7691 4.0166,0 7.4154,-1.1741 10.6905,-3.7077 v -3.337 c -3.5841,2.9044 -6.6121,4.1403 -10.3198,4.1403 -6.3031,0 -11.9265,-5.438 -11.0613,-12.5444 z m -21.5048,-2.4101 c 1.0506,-5.0672 4.6347,-8.0951 9.2075,-8.0951 4.7583,0 7.7244,2.6572 8.775,8.0951 z m 59.8797,-8.6513 c -2.7808,-1.6067 -5.0055,-2.3482 -7.4155,-2.3482 -5.0054,0 -8.9603,3.3369 -8.9603,7.6008 0,8.8985 14.3983,6.9211 14.3983,13.5332 0,2.8426 -2.4718,4.82 -5.8705,4.82 -2.6572,0 -5.0672,-0.6797 -8.7132,-2.5336 v 2.9044 c 2.8426,1.7302 5.4998,2.5336 8.3424,2.5336 5.129,0 9.0839,-3.337 9.0839,-7.6626 0,-9.6401 -14.3983,-7.1065 -14.3983,-13.7804 0,-2.6572 2.5954,-4.6964 5.9323,-4.6964 2.4719,0 4.5111,0.8033 7.6009,2.8426 z m 33.6166,12.1119 c 0,-8.2806 -5.9941,-14.4601 -14.0893,-14.4601 -8.0952,0 -14.1511,6.1795 -14.1511,14.4601 0,8.2188 6.0559,14.3983 14.1511,14.3983 8.0952,0 14.0893,-6.1795 14.0893,-14.3983 z m -3.1516,0 c 0,6.6121 -4.6964,11.4939 -10.9377,11.4939 -6.3031,0 -10.9996,-4.8818 -10.9996,-11.4939 0,-6.6739 4.6965,-11.5557 10.9996,-11.5557 6.2413,0 10.9377,4.9436 10.9377,11.5557 z m 13.1004,-28.302 h -2.9662 v 42.1441 h 2.9662 z m 27.746,42.1441 h 2.9662 v -27.7461 h -2.9662 v 19.4656 c -2.41,3.7695 -4.6346,5.9323 -9.0221,5.9323 -4.0785,0 -7.6008,-2.6572 -7.6008,-8.2806 v -17.1173 h -2.9662 v 17.1791 c 0,8.2806 5.5616,11.1232 10.3198,11.1232 4.3257,0 6.6121,-1.5449 9.1457,-5.129 h 0.1236 z m 16.1286,-36.9533 h -0.9269 l -2.0393,2.5954 v 6.6118 h -7.4772 v 2.4101 h 7.4772 v 19.9598 c 0,4.2021 3.337,5.9324 6.4267,5.9324 0.9888,0 2.1629,-0.2472 3.2134,-0.4944 1.0505,-0.309 1.9774,-0.6179 2.5336,-0.9269 v -2.8426 c -2.4718,1.1123 -3.3987,1.3595 -5.0672,1.3595 -4.0785,0 -4.1403,-1.7303 -4.1403,-6.4885 v -16.4993 h 7.7862 v -2.4101 h -7.7862 z m 16.6847,9.2072 h -2.9662 v 27.7461 h 2.9662 z m 0,-14.398 h -2.9662 v 5.0672 h 2.9662 z m 35.1615,28.302 c 0,-8.2806 -5.9941,-14.4601 -14.0893,-14.4601 -8.0952,0 -14.1511,6.1795 -14.1511,14.4601 0,8.2188 6.0559,14.3983 14.1511,14.3983 8.0952,0 14.0893,-6.1795 14.0893,-14.3983 z m -3.1515,0 c 0,6.6121 -4.6965,11.4939 -10.9378,11.4939 -6.3031,0 -10.9995,-4.8818 -10.9995,-11.4939 0,-6.6739 4.6964,-11.5557 10.9995,-11.5557 6.2413,0 10.9378,4.9436 10.9378,11.5557 z m 12.6059,-13.904 h -2.9661 v 27.7461 h 2.9661 v -19.4655 c 2.4718,-4.0167 5.0672,-5.9323 9.0839,-5.9323 4.8819,0 7.5391,3.3369 7.5391,9.5782 v 15.8196 h 2.9661 v -16.9319 c 0,-7.4772 -4.3874,-11.3703 -10.3198,-11.3703 -4.0167,0 -6.5503,1.4831 -9.1457,5.3762 h -0.1236 z m 42.577,1.7921 c -2.7808,-1.6067 -5.0054,-2.3482 -7.4155,-2.3482 -5.0054,0 -8.9603,3.3369 -8.9603,7.6008 0,8.8985 14.3983,6.9211 14.3983,13.5332 0,2.8426 -2.4718,4.82 -5.8705,4.82 -2.6572,0 -5.0672,-0.6797 -8.7132,-2.5336 v 2.9044 c 2.8426,1.7302 5.4998,2.5336 8.3424,2.5336 5.129,0 9.0839,-3.337 9.0839,-7.6626 0,-9.6401 -14.3983,-7.1065 -14.3983,-13.7804 0,-2.6572 2.5954,-4.6964 5.9324,-4.6964 2.4718,0 4.511,0.8033 7.6008,2.8426 z" />
    <path
       id="path63"
       style="fill:none;stroke:#565757;stroke-width:0.56370002;stroke-linecap:butt;stroke-linejoin:miter;stroke-dasharray:none"
       d="M 355.0546,333.1963 H 793.8198" />
  </g>
</svg>
